# xmcd
#
# Track frame offsets: 
#        150
#        10284
#        24747
#        39741
#        57828
#        68327
#        82041
#        95869
#        110314
#        124637
#        146096
#        158526
#
# Disc length: 2331 seconds
#
# Revision: 0
# Processed by: cddbd v1.5.2PL0 Copyright (c) Steve Scherf et al.
# Submitted via: ExactAudioCopyFreeDBPlugin 1.0
#
DISCID=9a09190c
DTITLE=John Williamson - His Favourite Collection - CD 1 - Willo Goes 
DTITLE=Troppo
DYEAR=2016
DGENRE=Country
TTITLE0=Island of Oceans
TTITLE1=Amazing Day
TTITLE2=Papa Whiskey November
TTITLE3=Tropical Fever
TTITLE4=Tomorrow’s Worries
TTITLE5=Frangipani Bay
TTITLE6=Cape York Peninsula
TTITLE7=Flower On The Water
TTITLE8=Beach Of Love
TTITLE9=Hang My Hat In Queensland (Orchestra Version)
TTITLE10=Crocodile Roll
TTITLE11=Queensland Bungalow
EXTD=
EXTT0=
EXTT1=
EXTT2=
EXTT3=
EXTT4=
EXTT5=
EXTT6=
EXTT7=
EXTT8=
EXTT9=
EXTT10=
EXTT11=
PLAYORDER=
